<?xml version="1.0" standalone="no"?>
<!DOCTYPE svg PUBLIC "-//W3C//DTD SVG 20010904//EN"
 "http://www.w3.org/TR/2001/REC-SVG-20010904/DTD/svg10.dtd">
<svg version="1.0" xmlns="http://www.w3.org/2000/svg"
 width="260.000000pt" height="260.000000pt" viewBox="0 0 260.000000 260.000000"
 preserveAspectRatio="xMidYMid meet">
<metadata>
Created by potrace 1.14, written by Peter Selinger 2001-2017
</metadata>
<g transform="translate(0.000000,260.000000) scale(0.100000,-0.100000)"
fill="#000000" stroke="none">
<path d="M2284 2344 c3 -8 -1 -14 -9 -14 -8 0 -15 -7 -15 -15 0 -7 -7 -18 -16
-23 -14 -8 -22 -31 -26 -79 -1 -7 -5 -13 -10 -13 -5 0 -7 -4 -4 -8 7 -12 -29
-41 -41 -33 -6 3 -13 16 -17 27 -4 12 -14 30 -24 40 -18 20 -48 31 -37 14 3
-5 1 -10 -5 -10 -6 0 -9 -4 -6 -9 9 -15 -53 -38 -90 -34 -27 3 -34 1 -28 -9 6
-10 4 -10 -7 -2 -14 11 -22 13 -84 16 -19 1 -35 6 -35 11 0 5 -9 7 -20 4 -11
-3 -20 -1 -20 5 0 5 -4 6 -10 3 -5 -3 -10 -1 -10 5 0 6 -4 8 -10 5 -5 -3 -10
-1 -10 5 0 6 -4 8 -10 5 -5 -3 -10 -1 -10 6 0 7 -3 9 -7 6 -3 -4 -13 3 -22 16
-9 12 -13 23 -11 23 14 5 -35 42 -53 41 -47 -3 -58 -38 -32 -99 21 -51 26 -90
13 -105 -15 -18 -28 -16 -28 4 0 9 -3 13 -6 10 -8 -7 -44 31 -44 45 0 5 -10 4
-21 -3 -15 -8 -19 -8 -15 0 4 6 2 11 -3 11 -6 0 -11 6 -11 14 0 8 -9 12 -22
11 -33 -3 -32 -3 -56 -25 -30 -28 -34 -28 -43 -3 -6 18 -16 22 -50 21 -25 0
-45 5 -50 13 -7 11 -9 10 -9 -4 0 -10 -4 -15 -10 -12 -5 3 -10 -3 -10 -14 0
-21 -15 -24 -36 -6 -51 44 -50 43 -75 25 -21 -16 -21 -20 -9 -37 14 -17 14
-17 -6 0 -11 9 -27 17 -35 17 -26 0 -60 39 -50 57 10 19 3 53 -16 71 -11 11
-13 11 -13 0 0 -11 -2 -11 -9 0 -7 11 -11 11 -24 -2 -8 -9 -21 -16 -27 -16 -6
0 -8 -4 -5 -10 3 -5 1 -10 -5 -10 -6 0 -8 -4 -5 -10 3 -5 1 -10 -5 -10 -6 0
-8 -4 -5 -10 3 -5 1 -10 -5 -10 -7 0 -46 -35 -88 -78 -72 -73 -79 -78 -105
-69 -15 5 -27 13 -27 18 0 6 -5 7 -10 4 -6 -4 -10 -3 -9 2 3 20 -2 34 -11 28
-5 -3 -10 -2 -10 3 0 5 -7 9 -15 9 -8 0 -15 -5 -15 -11 0 -15 -30 -32 -55 -31
-11 0 -19 6 -17 13 1 6 -2 12 -7 12 -6 0 -9 18 -9 41 0 27 -6 47 -17 57 -12
11 -15 12 -10 3 6 -11 4 -13 -8 -8 -10 3 -18 2 -18 -3 -2 -13 -6 -29 -9 -35
-3 -6 -7 -22 -9 -35 -1 -12 -21 -9 -37 5 -20 19 -40 69 -38 98 0 15 -3 30 -9
34 -6 4 -7 1 -2 -8 4 -8 -9 4 -29 26 -19 22 -36 34 -36 27 0 -7 -4 -11 -9 -8
-10 7 -23 -19 -13 -28 8 -8 10 -46 3 -46 -7 0 -53 30 -61 40 -16 20 -70 49
-88 47 -11 0 -18 -5 -16 -9 3 -4 1 -8 -5 -8 -5 0 -8 -10 -5 -22 3 -13 8 -52
10 -88 3 -36 6 -70 6 -77 2 -14 28 -27 28 -13 0 5 7 6 17 3 11 -4 14 -3 9 5
-4 7 -2 12 6 12 18 0 31 -11 51 -40 9 -13 17 -18 17 -11 0 18 50 -39 51 -59 1
-8 2 -27 2 -42 0 -16 5 -28 10 -28 5 0 4 -7 -3 -15 -10 -12 -10 -15 1 -15 10
0 10 -3 3 -8 -6 -4 -10 -15 -9 -24 2 -9 -5 -32 -14 -50 -9 -18 -17 -40 -17
-48 1 -19 46 -26 57 -8 7 10 9 10 9 1 0 -7 10 -13 23 -13 18 0 19 -2 7 -11
-11 -8 -6 -9 20 -5 19 3 30 3 23 -2 -6 -4 -10 -19 -8 -32 7 -52 17 -105 21
-109 7 -7 -55 -61 -71 -61 -8 0 -28 13 -45 30 -28 27 -37 32 -56 29 -4 0 -10
5 -14 11 -5 8 -9 4 -13 -9 -3 -12 -1 -21 5 -21 5 0 7 -4 3 -9 -3 -5 5 -20 18
-33 30 -30 38 -62 21 -85 -7 -10 -14 -14 -14 -10 0 4 -15 -8 -34 -27 -19 -19
-37 -31 -40 -28 -3 3 -6 0 -6 -6 0 -22 -37 -12 -50 13 -7 14 -17 25 -20 25 -4
0 -13 13 -20 30 -7 16 -16 27 -21 24 -5 -3 -9 2 -9 12 0 13 -3 14 -13 5 -8 -6
-17 -8 -20 -4 -4 3 -7 -1 -7 -11 0 -11 5 -15 12 -10 10 5 10 4 2 -5 -12 -13 3
-61 19 -61 5 0 5 -4 2 -10 -3 -5 -1 -10 5 -10 6 0 8 -4 5 -10 -3 -5 -1 -10 4
-10 6 0 11 -7 11 -15 0 -8 5 -15 10 -15 7 0 7 -6 0 -20 -6 -11 -7 -20 -3 -20
4 0 0 -5 -9 -11 -15 -8 -16 -13 -5 -29 6 -11 15 -20 20 -20 4 0 6 4 2 9 -3 6
4 8 16 6 27 -5 38 -22 34 -47 -2 -10 1 -18 7 -18 7 0 6 -5 -1 -14 -7 -8 -8
-17 -3 -20 5 -3 8 -28 8 -56 -1 -28 3 -50 9 -50 5 0 3 -5 -5 -10 -13 -8 -12
-10 3 -10 9 0 17 -4 17 -10 0 -5 5 -10 11 -10 5 0 8 4 5 9 -3 5 2 12 11 15 15
6 15 8 3 16 -13 9 -13 10 0 10 12 0 12 2 1 9 -9 6 -10 11 -2 15 8 5 8 13 1 26
-7 13 -6 21 5 30 8 7 16 10 16 6 1 -3 2 -12 3 -18 1 -7 6 -12 11 -11 6 1 10
-28 10 -64 0 -50 -4 -68 -17 -77 -10 -7 -15 -16 -11 -19 3 -4 -2 -9 -11 -13
-9 -3 -16 -12 -16 -19 0 -6 -9 -23 -21 -36 -18 -21 -18 -25 -5 -35 9 -6 12
-15 8 -20 -4 -4 4 -1 18 8 14 9 24 22 22 28 -1 6 2 9 8 5 5 -3 10 -1 10 6 0 8
4 8 15 -1 13 -11 15 -10 10 6 -4 11 0 9 8 -6 9 -14 13 -28 11 -31 -2 -4 7 -2
21 4 14 7 25 16 25 20 0 5 -6 5 -12 1 -7 -4 -4 2 6 14 14 17 16 22 5 22 -11 0
-11 2 1 10 12 8 12 10 1 10 -10 0 -11 3 -2 13 6 8 9 16 6 19 -3 2 2 5 10 5 8
0 15 -6 15 -14 0 -7 3 -13 8 -14 61 -6 91 -29 94 -74 1 -17 7 -34 13 -40 13
-13 36 -18 33 -8 -2 12 14 46 29 61 10 10 19 9 50 -8 21 -12 30 -19 21 -16
-15 5 -16 3 -6 -14 10 -16 9 -23 -8 -42 -33 -39 -60 -82 -58 -95 1 -7 2 -17 3
-23 0 -5 12 -9 25 -8 14 1 22 7 19 14 -5 13 26 34 50 34 9 0 14 -7 13 -15 -3
-21 -37 -55 -49 -48 -6 3 -7 1 -3 -5 4 -7 4 -17 0 -24 -4 -7 -9 -26 -10 -43
-1 -16 -2 -31 -4 -32 -3 -3 -4 -6 -15 -40 -4 -13 -12 -23 -17 -23 -5 0 -7 -4
-4 -9 3 -5 -1 -12 -10 -15 -8 -3 -12 -10 -9 -16 3 -5 1 -10 -4 -10 -6 0 -10
-3 -9 -7 1 -9 -13 -46 -21 -53 -16 -14 -51 -90 -41 -90 6 0 8 -4 5 -10 -3 -5
4 -10 15 -10 13 0 24 8 27 20 3 11 9 18 13 15 5 -3 11 4 15 15 4 11 11 18 16
15 5 -4 9 1 9 9 0 10 6 13 16 9 9 -3 14 -13 11 -23 -6 -24 32 -58 44 -39 4 7
5 17 3 21 -3 4 -1 8 4 8 6 0 10 6 9 13 -1 35 4 58 12 53 5 -3 14 1 21 9 7 8
16 12 21 9 5 -3 8 -2 7 3 -1 4 6 29 16 55 14 37 21 44 31 35 7 -7 11 -15 8
-19 -2 -5 1 -8 7 -8 6 0 8 -4 5 -10 -3 -5 -1 -10 4 -10 6 0 11 -6 11 -14 0 -8
9 -18 20 -21 11 -3 20 -13 20 -20 0 -9 6 -12 15 -9 8 4 12 10 9 15 -3 5 2 12
10 15 9 3 13 10 10 15 -10 17 12 9 29 -11 10 -13 23 -17 34 -13 24 9 60 47 56
60 -2 6 8 18 22 27 14 9 25 13 25 8 0 -16 37 -52 53 -52 8 0 18 -7 21 -16 4
-10 2 -13 -6 -8 -8 5 -9 2 -3 -12 4 -10 7 -27 7 -37 -1 -12 4 -17 13 -13 9 3
12 0 8 -10 -4 -10 0 -12 11 -8 10 4 15 13 12 21 -3 8 -2 12 3 9 5 -3 11 4 15
17 5 22 6 22 19 2 8 -11 14 -27 15 -35 1 -8 2 -30 3 -47 1 -18 5 -33 9 -33 3
0 5 -15 4 -34 -3 -36 18 -67 31 -46 3 6 11 7 17 4 7 -5 9 -1 5 9 -3 10 -2 17
3 17 5 0 9 8 9 18 -1 29 7 52 20 65 10 9 11 8 5 -7 -6 -14 -4 -17 6 -11 10 6
11 2 6 -18 -7 -30 16 -59 40 -50 8 3 13 8 10 10 -3 3 1 12 9 19 8 8 12 21 9
29 -4 8 -2 15 2 15 5 0 10 12 10 28 4 69 10 108 19 118 11 13 38 7 29 -7 -3
-5 1 -9 8 -9 10 0 10 -2 -1 -9 -9 -6 -10 -11 -3 -15 6 -4 9 -13 5 -21 -3 -9 1
-15 11 -15 9 0 16 -6 16 -12 1 -19 19 16 23 43 2 13 10 25 18 27 18 3 42 -45
27 -55 -7 -4 -8 -1 -3 7 6 9 4 11 -4 6 -9 -6 -8 -13 6 -29 10 -11 12 -17 5
-13 -11 7 -12 4 -3 -13 13 -24 22 -26 39 -9 17 17 16 81 0 73 -7 -4 -5 0 5 8
20 16 23 31 5 21 -7 -3 0 5 17 19 27 23 31 23 52 10 13 -9 23 -20 23 -25 0 -5
11 3 25 18 14 15 25 33 25 41 0 8 4 12 9 9 5 -4 12 0 14 6 4 10 6 10 6 1 1 -7
11 -17 22 -24 17 -9 20 -8 13 3 -6 11 -5 11 8 0 13 -10 17 -10 21 0 4 9 6 10
6 1 1 -7 7 -10 15 -7 8 3 19 -3 26 -15 6 -12 8 -21 5 -21 -2 0 5 -11 17 -25
12 -14 28 -23 36 -20 7 2 10 1 7 -5 -3 -5 7 -8 24 -5 19 2 31 -2 35 -11 3 -8
12 -14 21 -14 8 0 15 -3 15 -7 0 -5 20 -29 43 -55 31 -35 45 -44 53 -35 14 16
14 29 2 44 -6 7 -7 13 -4 13 4 0 -2 10 -14 22 -11 12 -20 27 -20 34 0 7 -11
24 -25 38 -15 15 -22 31 -19 40 3 9 1 16 -4 16 -12 0 -31 48 -34 88 -1 6 -6
12 -12 12 -6 0 -4 5 4 10 11 7 11 10 2 10 -7 0 -10 5 -7 10 4 6 11 8 16 5 5
-4 12 1 15 9 3 9 9 14 13 11 5 -2 7 18 7 45 -1 38 -9 60 -33 94 -17 24 -34 53
-38 65 -3 11 -11 21 -16 21 -6 0 -8 4 -5 9 3 5 -1 11 -9 15 -17 6 -21 56 -5
56 6 0 18 -10 28 -21 36 -44 56 -59 63 -48 5 8 8 8 13 0 12 -19 54 -8 65 17 6
13 16 20 21 17 6 -3 10 0 11 7 0 7 4 3 9 -10 5 -12 8 -36 6 -52 -2 -17 1 -33
6 -36 5 -3 3 -13 -4 -22 -11 -13 -11 -14 0 -8 12 7 12 4 2 -14 -10 -18 -9 -24
7 -37 10 -8 12 -11 4 -7 -10 5 -12 3 -7 -5 6 -9 11 -9 24 1 12 10 14 10 8 1
-4 -7 -2 -13 3 -13 6 0 11 17 12 38 1 85 6 114 18 122 8 4 11 12 7 18 -3 5 1
12 9 16 8 3 15 12 15 21 0 23 28 18 62 -10 25 -21 33 -23 51 -13 14 7 17 13 9
16 -6 2 -10 8 -7 12 3 5 -6 20 -20 34 -14 14 -25 28 -25 31 0 3 -9 15 -19 26
-22 24 -22 33 3 76 17 28 60 59 78 55 6 -1 19 43 20 65 0 18 20 43 29 38 5 -4
9 -2 9 2 0 5 12 9 26 8 18 0 28 6 30 18 1 9 -1 15 -6 12 -14 -9 -17 44 -4 67
51 91 63 138 34 138 -9 0 -27 -11 -40 -25 -13 -14 -20 -25 -15 -25 5 0 0 -7
-11 -16 -10 -8 -13 -13 -6 -9 22 11 13 -2 -13 -19 -25 -16 -28 -16 -58 3 -18
11 -38 29 -46 40 -8 11 -18 18 -23 15 -4 -3 -8 2 -8 10 0 9 -4 16 -10 16 -18
0 -10 29 16 55 14 14 22 30 19 35 -3 6 -2 10 3 10 17 0 9 29 -10 33 -10 3 -18
1 -18 -4 0 -5 -5 -9 -11 -9 -7 0 -20 -10 -30 -22 -11 -11 -19 -18 -19 -13 0 4
-6 2 -14 -4 -17 -14 -43 -5 -57 20 -11 21 -3 43 12 34 5 -4 9 1 9 9 0 9 6 16
13 16 9 0 8 3 -2 9 -8 5 -10 14 -6 22 5 8 5 11 0 7 -4 -4 -13 -2 -19 5 -19 19
-26 46 -15 53 6 3 8 13 5 21 -3 8 -1 11 4 8 6 -3 10 0 10 7 0 9 3 9 10 -2 6
-9 10 -11 10 -3 0 7 6 10 14 7 8 -3 16 3 19 15 4 15 -5 30 -32 54 -37 33 -57
73 -41 79 4 2 3 14 -2 28 -6 16 -12 20 -16 13 -4 -7 -13 -9 -21 -4 -10 6 -9
10 4 15 9 3 13 10 10 16 -3 5 3 10 14 10 12 0 21 5 21 11 0 5 4 7 10 4 13 -8
120 42 120 55 0 6 3 10 8 8 9 -5 61 49 54 56 -3 4 0 6 8 6 10 0 10 4 -1 17
-12 15 -12 16 1 8 13 -7 13 -6 2 7 -11 14 -7 22 26 56 49 50 57 69 33 81 -18
10 -57 -4 -91 -33 -25 -21 -46 -9 -44 24 1 17 -1 30 -4 31 -4 0 -15 2 -25 4
-13 2 -17 -1 -13 -11z m-788 -210 c-3 -13 -1 -24 3 -24 15 0 7 -27 -8 -27 -39
-1 -55 55 -19 65 10 2 15 9 11 15 -3 6 -1 7 6 3 6 -4 9 -18 7 -32z m434 -6 c0
-4 -6 -8 -12 -8 -10 0 -10 -2 -1 -8 8 -5 3 -12 -17 -19 -19 -7 -30 -8 -30 -2
0 6 -4 8 -8 5 -5 -3 -9 1 -9 8 0 8 6 12 14 9 7 -3 15 1 18 9 6 14 45 20 45 6z
m-917 -70 c-2 -5 2 -8 9 -9 10 0 10 -2 0 -6 -6 -2 -10 -9 -7 -13 3 -5 -6 -17
-20 -26 -13 -9 -22 -21 -19 -28 3 -6 -8 4 -24 22 -27 29 -29 37 -20 57 6 14
16 22 21 18 7 -4 8 1 3 12 -5 15 -4 16 9 5 13 -11 14 -10 9 6 -5 15 -2 14 18
-6 14 -14 23 -28 21 -32z m1014 7 c0 -8 -4 -12 -9 -9 -5 3 -6 10 -3 15 9 13
12 11 12 -6z m-371 -40 c8 -7 9 -14 2 -22 -8 -10 -15 -9 -35 4 -17 12 -21 18
-12 24 16 9 29 7 45 -6z m-792 -46 c-8 -14 -21 -11 -21 5 0 8 6 12 14 9 7 -3
10 -9 7 -14z m-448 -21 c4 -6 3 -8 -4 -4 -6 3 -15 -2 -21 -11 -12 -20 -14 -13
-5 11 7 19 20 21 30 4z m729 -128 c-1 -8 -12 -15 -26 -15 -18 0 -25 6 -27 24
-2 14 0 21 6 17 6 -4 13 -2 17 4 8 14 33 -11 30 -30z m421 -30 c-4 8 0 6 8 -4
12 -15 13 -22 4 -34 -10 -12 -14 -12 -23 2 -7 9 -15 13 -18 10 -3 -3 -3 4 0
15 5 18 8 19 21 9 13 -11 15 -11 8 2z m-369 -24 c0 -8 -6 -12 -14 -9 -9 4 -11
0 -7 -11 4 -11 1 -16 -12 -15 -11 0 -14 3 -6 6 6 2 9 9 6 15 -4 6 0 14 7 19
20 12 26 11 26 -5z m236 -16 c-3 -11 -9 -20 -15 -20 -5 0 -4 9 2 20 6 11 12
20 14 20 2 0 2 -9 -1 -20z m-686 -5 c0 -8 -4 -12 -9 -9 -4 3 -8 0 -8 -6 0 -6
-5 -8 -10 -5 -8 5 -7 11 1 21 15 18 26 18 26 -1z m55 -77 c-7 -7 -12 -8 -12
-2 0 14 12 26 19 19 2 -3 -1 -11 -7 -17z m-26 -42 c0 -14 -3 -23 -7 -20 -4 2
-15 -3 -23 -12 -9 -9 -16 -11 -16 -4 0 6 -4 9 -8 6 -4 -2 -14 -1 -22 4 -11 7
-7 11 16 20 23 10 57 26 60 29 0 1 0 -10 0 -23z m407 -73 c-4 -11 -8 -11 -21
-1 -13 11 -14 10 -3 -9 11 -21 8 -27 -11 -24 -11 2 -10 -17 2 -24 19 -12 7
-51 -16 -53 -16 -1 -21 3 -19 16 1 9 7 16 13 15 6 -1 9 5 7 15 -2 9 -4 25 -4
35 -1 10 -5 15 -11 12 -6 -3 -7 1 -4 9 3 9 10 14 14 11 5 -3 11 -1 15 4 9 15
44 9 38 -6z m769 -53 c6 0 5 -6 -2 -15 -7 -9 -10 -18 -6 -22 3 -3 6 -1 6 5 0
7 5 12 10 12 6 0 10 -7 10 -15 0 -8 5 -15 10 -15 6 0 5 -8 -2 -20 -7 -11 -16
-20 -20 -20 -5 0 -8 9 -8 20 0 11 -4 20 -10 20 -5 0 -10 10 -10 23 0 17 -2 19
-10 7 -7 -12 -9 -10 -7 8 1 15 6 21 15 17 7 -3 18 -5 24 -5z m-462 -41 c0 -11
-4 -19 -10 -19 -5 0 -10 6 -10 13 0 8 -4 7 -10 -3 -8 -13 -10 -13 -10 2 0 9 5
20 10 23 6 4 7 12 3 18 -4 7 0 6 10 -2 9 -7 17 -22 17 -32z m-796 25 c14 -5
13 -9 -1 -32 -9 -15 -18 -28 -19 -30 -1 -2 -12 -5 -25 -7 -21 -4 -24 -1 -24
29 0 19 2 33 5 31 3 -2 12 0 20 6 18 10 23 11 44 3z m551 -14 c-3 -5 -1 -10 5
-10 7 0 6 -5 -2 -14 -11 -12 -14 -11 -20 3 -10 25 -9 31 8 31 8 0 12 -4 9 -10z
m-855 -65 c15 -19 2 -42 -23 -40 -12 0 -30 -3 -41 -8 -13 -6 -16 -6 -12 2 4 6
1 11 -7 11 -7 0 -14 7 -14 15 0 8 2 13 5 11 2 -2 12 4 22 14 20 20 51 17 70
-5z m1904 6 c23 -19 20 -28 -14 -40 -17 -6 -30 -6 -30 -1 0 5 -6 7 -14 4 -8
-3 -19 3 -26 15 -10 20 -4 26 23 22 4 0 7 3 7 7 0 13 36 8 54 -7z m54 -112
c21 -8 23 -12 12 -19 -11 -7 -11 -10 -2 -10 15 0 3 -27 -28 -63 -10 -12 -30
-35 -43 -51 l-25 -28 -22 22 c-21 21 -21 22 -3 35 14 11 15 14 3 15 -12 0 -13
2 -1 9 9 6 10 11 2 15 -15 10 -14 51 2 64 6 6 24 13 40 17 15 4 27 12 28 19 0
6 3 6 6 -2 3 -7 17 -18 31 -23z m-2041 -3 c3 -2 5 -10 7 -18 1 -7 6 -19 10
-27 7 -10 5 -12 -5 -7 -8 4 -5 -1 6 -11 11 -10 21 -25 23 -33 2 -8 10 -22 18
-31 15 -17 9 -29 -13 -29 -17 0 -43 24 -43 39 0 6 -4 11 -10 11 -5 0 -10 7
-10 16 0 8 -4 12 -10 9 -5 -3 -10 0 -10 9 0 8 -5 16 -11 18 -5 2 -12 12 -13
23 -2 11 -9 19 -16 17 -6 -1 -8 2 -5 8 4 6 13 9 21 6 8 -3 14 -1 14 4 0 8 38
6 47 -4z m1309 -105 c-4 -5 0 -12 6 -14 7 -3 3 -6 -9 -6 -16 -1 -21 3 -17 14
4 8 10 15 16 15 5 0 7 -4 4 -9z m-700 -32 c3 -5 1 -16 -5 -23 -6 -7 -8 -16 -4
-20 4 -4 -1 -4 -12 0 -24 9 -35 23 -29 38 6 15 42 18 50 5z m-422 -50 c-2 -4
1 -9 7 -11 9 -3 8 -14 -2 -41 -13 -37 -23 -45 -34 -27 -3 5 -12 7 -20 3 -11
-4 -15 2 -15 20 0 33 10 58 20 52 5 -3 11 -2 14 3 3 5 12 9 20 9 8 0 13 -4 10
-8z m1630 -40 c-3 -5 -9 -7 -13 -5 -4 3 -7 -4 -7 -16 1 -12 -6 -22 -16 -23
-12 -2 -15 4 -13 21 3 35 24 57 41 43 8 -6 11 -15 8 -20z m-1031 -8 c-2 -6 1
-11 5 -11 5 0 9 -7 9 -15 0 -10 -4 -12 -12 -5 -7 5 -15 7 -18 3 -4 -3 -7 1 -7
10 0 10 -6 17 -12 17 -9 0 -8 4 2 10 18 12 36 7 33 -9z m430 -182 c5 -3 2 -9
-5 -12 -9 -3 -14 3 -15 15 -1 11 1 16 5 12 4 -5 11 -12 15 -15z m-426 -40
c-16 -9 -16 -12 -2 -39 9 -17 12 -30 8 -30 -4 0 3 -7 15 -16 12 -8 20 -19 17
-24 -3 -5 -1 -11 4 -14 5 -3 14 -20 20 -36 6 -18 6 -28 1 -25 -6 4 -10 2 -10
-3 0 -5 -7 -9 -15 -9 -8 0 -15 4 -15 8 0 4 -7 14 -15 23 -8 8 -16 26 -17 40
-1 14 -6 26 -11 26 -5 0 -7 13 -5 30 3 20 1 27 -6 21 -7 -6 -11 -1 -11 14 0
13 2 22 4 20 2 -2 12 5 24 15 11 11 23 17 26 14 3 -3 -2 -10 -12 -15z m-244
-66 c-4 -10 -2 -14 5 -9 6 3 13 2 17 -4 4 -6 12 -7 18 -3 7 3 4 -3 -6 -14 -9
-11 -14 -23 -10 -26 3 -4 -2 -7 -11 -7 -12 0 -16 -5 -13 -14 4 -9 1 -13 -6
-10 -15 6 -19 61 -6 85 12 23 21 25 12 2z m667 -61 c-6 -2 -10 -11 -10 -19 0
-22 -10 -11 -15 16 -2 12 0 19 6 16 5 -4 9 0 9 7 0 9 3 9 10 -2 6 -10 6 -16 0
-18z m484 -25 c-5 -26 -7 -27 -22 -11 -8 9 -9 14 -2 14 6 0 9 4 6 8 -3 5 1 9
9 9 8 0 12 -8 9 -20z m-1092 -39 c-9 -9 -8 -14 3 -22 12 -10 19 -44 16 -88 -1
-10 -8 -18 -17 -18 -8 0 -12 5 -9 10 3 6 1 10 -5 10 -6 0 -9 4 -6 9 3 5 -1 14
-9 21 -8 7 -15 24 -15 38 0 14 3 22 7 19 3 -4 12 2 20 13 8 11 17 20 21 20 3
0 1 -5 -6 -12z m395 -75 c-4 -3 1 -12 11 -19 10 -8 12 -13 5 -14 -9 0 -10 -7
-3 -25 9 -23 6 -29 -12 -26 -5 0 -8 -4 -8 -9 0 -6 -6 -5 -14 2 -9 9 -11 17 -5
25 7 7 6 13 0 17 -11 7 -3 37 13 48 14 9 22 10 13 1z"/>
<path d="M666 1478 c3 -5 10 -6 15 -3 13 9 11 12 -6 12 -8 0 -12 -4 -9 -9z"/>
<path d="M1664 461 c20 -22 26 -25 26 -13 0 4 -10 13 -22 21 -23 14 -23 14 -4
-8z"/>
</g>
</svg>
